<svg version="1.0" xmlns="http://www.w3.org/2000/svg"
 width="381.000000pt" height="256.000000pt" viewBox="0 0 381.000000 256.000000"
 preserveAspectRatio="xMidYMid meet">

<g transform="translate(0.000000,256.000000) scale(0.100000,-0.100000)"
fill="#000000" stroke="none">
<path d="M1705 2552 c-409 -11 -733 -30 -765 -44 -44 -19 -85 -61 -114 -113
-21 -40 -21 -47 -21 -589 -1 -605 0 -613 61 -677 58 -62 81 -67 371 -90 399
-31 967 -31 1313 -1 140 12 270 27 288 33 45 15 99 63 124 112 30 60 40 207
40 612 0 397 -11 554 -41 614 -27 52 -79 91 -144 108 -72 19 -834 43 -1112 35z
m-127 -551 c54 -28 117 -101 132 -156 24 -86 1 -185 -59 -248 -47 -52 -98 -72
-181 -72 -88 0 -137 22 -190 81 -45 52 -60 93 -60 168 0 113 74 212 184 246
45 14 127 5 174 -19z m982 -226 c0 -6 -52 -62 -115 -125 l-115 -115 0 240 0
240 115 -115 c63 -63 115 -119 115 -125z"/>
<path d="M186 545 c-71 -25 -85 -49 -132 -222 -57 -206 -57 -203 6 -203 60 0
56 -6 101 165 47 179 51 185 140 185 l49 0 0 -162 c0 -90 4 -169 9 -176 5 -9
25 -12 57 -10 l49 3 0 215 0 215 -120 2 c-83 2 -132 -2 -159 -12z"/>
<path d="M620 438 c-58 -30 -82 -72 -83 -147 0 -71 25 -128 70 -154 66 -38
219 -30 258 13 9 10 15 29 13 42 -4 32 -58 37 -94 9 -39 -31 -97 -28 -123 5
-12 15 -21 31 -21 35 0 5 53 9 118 9 69 0 122 4 128 10 14 14 0 104 -21 137
-40 60 -165 81 -245 41z m136 -56 c11 -7 34 -45 34 -56 0 -3 -34 -6 -75 -6
-82 0 -94 11 -55 50 20 20 74 27 96 12z"/>
<path d="M1750 438 c-59 -30 -81 -70 -81 -148 -1 -74 24 -127 72 -155 46 -27
169 -28 217 -2 87 47 107 193 37 275 -46 55 -167 69 -245 30z m159 -74 c15
-19 21 -41 21 -79 0 -68 -27 -105 -75 -105 -18 0 -43 9 -56 19 -21 17 -24 28
-24 84 0 80 19 107 76 107 29 0 42 -6 58 -26z"/>
<path d="M2230 444 c-22 -10 -36 -11 -38 -4 -2 5 -24 10 -48 10 l-44 0 2 -217
3 -218 45 0 45 0 3 51 3 51 79 -1 c88 -1 119 14 155 75 27 47 27 140 -1 193
-36 69 -123 95 -204 60z m91 -73 c21 -17 24 -28 24 -85 0 -78 -16 -101 -73
-100 -69 0 -72 4 -72 94 l0 81 33 14 c43 19 61 18 88 -4z"/>
<path d="M3243 452 c-47 -3 -40 10 -89 -169 -10 -35 -22 -63 -27 -63 -26 0
-49 41 -77 132 l-31 98 -49 0 c-28 0 -50 -3 -50 -7 0 -16 53 -180 67 -208 21
-41 63 -85 82 -85 9 0 22 -4 30 -9 12 -8 12 -13 -2 -35 -13 -20 -26 -26 -64
-28 -46 -3 -48 -4 -48 -33 l0 -30 71 -3 c64 -3 75 0 101 22 17 14 37 45 46 68
33 91 98 340 90 347 -4 3 -27 5 -50 3z"/>
<path d="M957 443 c-11 -10 -8 -308 3 -319 5 -5 30 -8 55 -6 l45 4 0 64 c0 39
4 64 11 64 24 0 52 -25 85 -76 34 -53 35 -54 84 -54 30 0 50 4 50 11 0 21 -71
129 -92 140 -20 11 -20 11 5 33 25 20 57 76 72 124 6 22 5 23 -47 20 -52 -3
-53 -4 -74 -47 -23 -47 -56 -81 -80 -81 -11 0 -14 16 -14 65 l0 65 -48 0 c-27
0 -52 -3 -55 -7z"/>
<path d="M1312 418 c3 -33 4 -33 61 -36 l57 -3 0 -129 0 -130 50 0 50 0 0 130
0 129 58 3 c56 3 57 3 60 36 l3 32 -171 0 -171 0 3 -32z"/>
<path d="M2520 285 l0 -165 59 0 c68 0 66 -2 142 135 l44 80 3 -108 3 -108 47
3 47 3 3 163 2 163 -67 -3 -68 -3 -57 -105 -58 -105 0 108 0 107 -50 0 -50 0
0 -165z"/>
<path d="M3350 285 l0 -165 50 0 49 0 3 103 3 102 41 -100 42 -100 38 0 38 0
40 99 41 98 3 -101 3 -101 49 0 50 0 0 165 0 166 -71 -3 -71 -3 -41 -99 c-32
-78 -43 -95 -49 -80 -5 10 -23 55 -42 99 l-33 80 -72 3 -71 3 0 -166z"/>
</g>
</svg>
